<?xml version="1.0" standalone="no"?>
<!DOCTYPE svg PUBLIC "-//W3C//DTD SVG 20010904//EN"
 "http://www.w3.org/TR/2001/REC-SVG-20010904/DTD/svg10.dtd">
<svg version="1.0" xmlns="http://www.w3.org/2000/svg"
 width="225.000000pt" height="225.000000pt" viewBox="0 0 225.000000 225.000000"
 preserveAspectRatio="xMidYMid meet">

<g transform="translate(0.000000,225.000000) scale(0.100000,-0.100000)"
fill="#f53542" stroke="#F29434">
<path d="M224 2039 c-84 -6 -224 -36 -224 -48 0 -4 33 -3 73 3 145 18 327 -30
472 -124 150 -98 274 -239 605 -685 90 -121 214 -288 277 -371 106 -144 265
-324 284 -324 5 0 9 266 9 625 l0 625 -85 0 -85 0 0 -315 c0 -173 -3 -315 -7
-315 -5 0 -28 29 -53 63 -211 291 -443 566 -553 654 -198 160 -440 232 -713
212z"/>
<path d="M530 1140 l0 -620 85 0 85 0 0 310 c0 171 3 310 8 310 4 -1 57 -67
117 -147 227 -303 364 -463 489 -571 75 -65 250 -153 366 -184 116 -30 377
-33 488 -4 40 10 75 23 78 28 4 6 -2 7 -17 3 -13 -5 -67 -8 -119 -7 -208 2
-382 78 -559 246 -99 94 -306 359 -713 912 -110 150 -279 344 -299 344 -5 0
-9 -251 -9 -620z"/>
</g>
</svg>
